<?xml version="1.0" encoding="UTF-8"?>
<svg width="364px" height="635px" viewBox="0 0 364 635" version="1.1" xmlns="http://www.w3.org/2000/svg" xmlns:xlink="http://www.w3.org/1999/xlink">
    <title>Fill 16</title>
    <g id="La-Nina" stroke="none" stroke-width="1" fill="none" fill-rule="evenodd">
        <path d="M132.1225,358.3674 C131.5215,343.1024 122.2025,333.9544 107.1655,333.8974 C93.8725,333.7824 80.6945,333.8404 67.4585,333.8404 L43.0735,333.8974 L43.0735,254.9964 L103.9925,254.9964 C123.3745,254.9394 132.0655,246.1914 132.1505,226.5234 C132.2085,219.2634 132.1505,212.0014 132.1225,204.7404 C132.0365,188.3884 131.9515,171.4654 132.7225,154.8844 C134.4375,118.3504 146.9015,90.3354 170.8295,69.3524 C189.9825,52.5424 213.9675,43.4524 242.0975,42.3084 C260.6215,41.5084 279.5175,41.5654 297.9275,41.7944 C305.3885,41.9084 312.9075,41.7944 320.1685,41.8514 L320.1685,113.8334 L319.8825,113.8334 C317.8815,113.7764 315.8235,113.7764 313.7645,113.8334 C308.3045,114.0054 302.8155,114.0054 297.3275,114.0624 C284.9495,114.1764 272.1425,114.2334 259.6495,115.7204 C232.6635,118.9224 217.3695,134.9304 215.4545,162.0314 C213.7675,185.7014 214.1675,209.3714 214.5675,232.2414 C214.7965,246.1914 224.5735,254.8824 240.0675,254.9394 C258.1915,254.9964 276.2295,254.9394 294.3825,254.9964 L316.5375,254.9964 L316.5375,333.8974 L289.1515,333.8974 C273.3425,333.8404 257.5055,333.8404 241.6965,333.8974 C222.9725,333.8974 214.2535,342.7014 214.2535,361.5694 C214.2245,436.4674 214.2245,511.3084 214.2245,586.1494 L214.2245,591.4094 L132.1505,591.4094 L132.1505,364.0274 L132.1795,362.5984 C132.1795,361.1694 132.1795,359.7974 132.1225,358.3674 M353.2435,226.9244 C347.4695,216.9754 337.6065,212.1734 323.1415,212.1734 L322.7985,212.1734 C306.7325,212.1734 290.6955,212.1164 274.5145,212.2304 L257.6195,212.2304 C257.6195,208.1714 257.5915,204.2254 257.5915,200.2234 C257.5055,189.1324 257.4485,178.2684 257.7055,167.4064 C257.9055,159.6874 258.6775,158.8294 266.7675,157.3434 C268.1975,157.1144 269.8265,156.9434 271.7415,156.9434 L289.9235,156.8284 C302.0435,156.7714 314.1935,156.7144 326.3435,156.5994 C349.3845,156.4284 363.1635,142.6494 363.2205,119.7224 C363.2775,91.7074 363.2775,63.6914 363.1635,35.6764 C363.1635,31.7314 362.7345,27.8434 361.9055,24.1274 C358.8755,10.9204 345.2395,-0.0006 331.9465,-0.0006 L331.4035,-0.0006 C310.6775,0.4004 289.5515,0.4004 269.1405,0.2854 C259.2495,0.2284 249.2435,0.3434 239.4385,0.2284 C215.4255,0.3434 191.8975,6.5754 169.4855,18.8104 C125.9765,42.5374 100.1625,80.2724 92.7585,131.1004 C90.2135,148.3094 90.0135,166.1484 89.8425,183.3574 C89.7565,191.1334 89.6705,198.8514 89.3845,206.5704 C89.2985,208.3994 89.2985,210.1724 89.3275,212.2304 L70.6605,212.1734 C58.7685,212.0584 46.9615,212.2304 35.1265,212.2874 C13.6005,212.5164 0.1925,226.0094 0.1075,247.5064 C-0.0355,278.6094 -0.0355,309.7124 0.1075,340.7584 C0.1645,362.7124 13.9435,376.4344 36.0415,376.5494 C48.2765,376.6064 60.5405,376.6064 72.8615,376.6064 L89.3565,376.6064 L89.3565,595.0114 C89.3275,597.1844 89.3275,599.3564 89.4705,601.4724 C90.7285,621.4834 104.4215,634.4044 124.3185,634.4614 C140.6695,634.5184 157.0505,634.5754 173.4025,634.5754 C189.7535,634.5754 206.1345,634.5184 222.4865,634.4614 C237.5515,634.4044 248.3865,627.4864 253.8745,614.4504 C255.9335,609.7054 256.9335,603.6444 256.9625,596.0404 C257.1055,538.9234 257.1055,481.8064 257.1055,424.7464 L257.0765,376.6064 L279.5745,376.6634 C294.4395,376.6634 309.3625,376.6634 324.2855,376.5494 C345.2685,376.3774 359.4475,362.1404 359.5615,341.1584 L359.6185,332.4674 C359.7615,304.7384 359.8755,276.0944 359.3325,247.8494 C359.2185,241.0464 356.9885,233.4424 353.2435,226.9244" id="Fill-16" fill="#F4E9D9"></path>
    </g>
</svg>