<?xml version="1.0" encoding="UTF-8"?>
<svg width="562px" height="564px" viewBox="0 0 562 564" version="1.1" xmlns="http://www.w3.org/2000/svg" xmlns:xlink="http://www.w3.org/1999/xlink">
    <title>Group 25</title>
    <defs>
        <polygon id="path-1" points="0 0 561.959 0 561.959 563.6047 0 563.6047"></polygon>
    </defs>
    <g id="La-Nina" stroke="none" stroke-width="1" fill="none" fill-rule="evenodd">
        <g id="Group-25" transform="translate(-0.000000, 0.000000)">
            <mask id="mask-2" fill="white">
                <use xlink:href="#path-1"></use>
            </mask>
            <g id="Clip-9"></g>
            <path d="M280.6761,513.8187 C280.6831,513.5307 280.6901,513.2427 280.6971,512.9547 C295.7321,512.9547 310.7831,513.4007 325.7991,512.8627 C357.8311,511.7167 390.1021,512.1077 421.8021,508.1147 C465.1231,502.6577 494.4261,477.6827 505.0171,434.5687 C509.2991,417.1407 510.7571,398.6987 511.0641,380.6767 C512.0291,324.0357 512.2371,267.3727 511.8951,210.7237 C511.7591,188.0427 510.6501,165.2207 507.8301,142.7327 C502.1321,97.2867 473.9221,66.5947 428.9741,57.6027 C409.7161,53.7497 389.6931,52.6007 369.9881,52.3167 C317.1951,51.5567 264.3791,51.4457 211.5841,52.0647 C186.9041,52.3537 161.9351,52.9727 137.6531,56.8907 C95.3251,63.7207 67.1791,88.7807 57.6281,131.1247 C53.3551,150.0687 52.1591,169.9577 51.7171,189.4667 C50.6811,235.1037 50.3801,280.7757 50.8781,326.4207 C51.2221,357.9107 52.0281,389.5187 55.1441,420.8227 C58.3101,452.6357 73.5511,478.5857 101.8961,495.2157 C119.6541,505.6357 139.4221,509.9637 159.7361,510.6887 C200.0351,512.1267 240.3611,512.8187 280.6761,513.8187 M561.9591,166.4227 L561.9591,393.0697 C561.6541,395.0337 561.2671,396.9877 561.0561,398.9617 C559.8661,410.0467 559.3051,421.2337 557.4491,432.2037 C551.4701,467.5557 536.3691,498.2037 509.2231,522.2817 C479.8031,548.3777 444.3841,558.7887 406.0571,561.3837 C392.7551,562.2847 379.4321,562.8737 366.1191,563.6047 L196.6841,563.6047 C193.2391,563.3037 189.7981,562.8197 186.3471,562.7317 C163.8011,562.1567 141.2851,561.2717 119.2421,555.8637 C72.9031,544.4957 38.4191,518.1237 17.8991,474.6767 C5.1341,447.6487 1.2791,418.5847 0.9701,389.0847 C0.3351,328.4197 -0.1779,267.7477 0.0581,207.0827 C0.1661,179.4567 0.4511,151.6877 6.4241,124.4657 C17.0001,76.2667 43.3141,40.0877 88.3961,18.6957 C115.0671,6.0407 143.7341,2.2847 172.8491,1.5947 C250.5521,-0.2493 328.2641,-1.1513 405.9381,2.6057 C428.5711,3.6997 450.6971,8.0777 471.4581,17.4817 C523.0271,40.8417 550.1291,82.2617 558.6081,137.0697 C560.1121,146.7947 560.8621,156.6357 561.9591,166.4227" id="Fill-8" fill="#F4E9D9" mask="url(#mask-2)"></path>
            <path d="M187.587688,281.9745 C187.5617,333.8825 229.2737,375.6685 281.1867,375.740591 C333.1457,375.8115 374.9267,334.2345 375.098222,282.2875 C375.2687,230.1555 333.3857,188.1945 281.2237,188.238465 C229.3287,188.2825 187.6137,230.0415 187.587688,281.9745 M281.2617,426.717898 C201.3107,426.5305 136.3607,361.4555 136.606004,281.7825 C136.8527,201.7935 202.0207,136.9205 281.6917,137.352335 C361.7347,137.7905 425.8997,202.0805 425.989793,281.9335 C426.0797,361.7995 361.0017,426.9035 281.2617,426.717898" id="Fill-11" fill="#F4E9D9" mask="url(#mask-2)"></path>
            <path d="M465.4236,131.2103 C465.6096,149.8713 450.9056,165.0603 432.4086,165.3173 C413.6016,165.5783 398.1696,150.5923 398.0296,131.9353 C397.8906,113.2743 412.5456,98.2133 431.1296,97.9193 C450.1206,97.6193 465.2356,112.2913 465.4236,131.2103" id="Fill-13" fill="#F4E9D9" mask="url(#mask-2)"></path>
        </g>
    </g>
</svg>