<?xml version="1.0" encoding="UTF-8"?>
<svg width="606px" height="597px" viewBox="0 0 606 597" version="1.1" xmlns="http://www.w3.org/2000/svg" xmlns:xlink="http://www.w3.org/1999/xlink">
    <title>Group 27</title>
    <defs>
        <polygon id="path-1" points="0 0 411.3114 0 411.3114 430.371147 0 430.371147"></polygon>
        <polygon id="path-3" points="0 0 176.501955 0 176.501955 595.9839 0 595.9839"></polygon>
    </defs>
    <g id="La-Nina" stroke="none" stroke-width="1" fill="none" fill-rule="evenodd">
        <g id="Group-27" transform="translate(-0.000000, 0.000000)">
            <g id="Group-3" transform="translate(194.059600, 165.726853)">
                <mask id="mask-2" fill="white">
                    <use xlink:href="#path-1"></use>
                </mask>
                <g id="Clip-2"></g>
                <path d="M371.375,389.720247 L295.162,389.720247 C294.934,324.541247 294.705,259.420247 294.391,194.241247 C294.333,178.804247 293.161,162.338247 285.014,146.844247 C273.15,124.203247 249.937,108.709247 223.009,105.507247 C195.136,101.734247 167.749,112.197247 149.969,132.379247 C134.874,149.474247 127.556,170.057247 127.642,195.385247 C127.728,243.182247 127.728,290.923247 127.699,338.720247 L127.699,389.834247 L41.28,389.834247 L41.28,50.2202475 L117.437,50.2202475 L117.437,125.061247 L134.76,108.366247 C137.99,105.279247 141.221,102.363247 144.394,99.4472475 C151.426,93.1002475 158.659,86.5252475 164.805,79.0352475 C185.902,53.4792475 212.889,40.7292475 247.25,40.1002475 C266.232,39.9862475 283.127,40.0432475 298.993,45.5892475 C341.216,60.4542475 368.174,96.7022475 371.09,142.499247 C371.29,145.472247 371.375,148.559247 371.375,151.590247 L371.375,389.720247 Z M411.169,135.066247 L410.196,129.292247 C409.425,124.432247 408.653,119.629247 407.51,114.941247 C394.674,61.8262475 362.428,25.7492475 311.686,7.79724747 C289.988,-0.0357525307 267.176,-0.321752531 246.05,0.135247469 C210.802,0.650247469 180.328,11.1702475 155.285,31.3522475 C153.942,27.4082475 151.77,23.7482475 148.854,20.5462475 C142.307,13.4572475 133.188,9.68324747 122.753,9.79824747 C101.542,10.3122475 80.302,10.1982475 58.976,10.0832475 L33.333,10.0262475 C12.15,10.0262475 2.27373675e-13,22.0902475 2.27373675e-13,43.1872475 L2.27373675e-13,397.839247 C2.27373675e-13,418.307247 11.721,430.142247 32.218,430.199247 C66.351,430.314247 100.427,430.314247 134.503,430.199247 C154.656,430.142247 166.691,417.964247 166.691,397.667247 L166.721,211.565247 C166.691,204.018247 166.691,196.529247 166.921,188.982247 C167.235,179.376247 170.008,170.800247 175.183,163.596247 C187.903,145.758247 208.143,139.755247 228.097,148.045247 C243.248,154.277247 251.109,163.253247 252.768,176.232247 C253.653,182.921247 254.312,189.725247 254.312,196.471247 L254.396,396.352247 C254.396,417.564247 267.032,430.199247 288.216,430.199247 L313.4,430.142247 C333.611,429.970247 353.908,429.913247 374.263,430.371247 L375.32,430.371247 C392.473,430.371247 404.308,422.938247 410.511,408.130247 L411.312,406.243247 L411.169,135.066247 Z" id="Fill-1" fill="#F4E9D9" mask="url(#mask-2)"></path>
            </g>
            <g id="Group-6" transform="translate(-0.000000, 0.000000)">
                <mask id="mask-4" fill="white">
                    <use xlink:href="#path-3"></use>
                </mask>
                <g id="Clip-5"></g>
                <path d="M136.2569,89.3059 C136.3429,101.9419 131.2539,113.8909 121.9919,122.9819 C113.2729,131.5579 101.4949,136.7609 91.0609,136.7609 L90.2319,136.7609 C60.1579,135.9599 39.5469,115.7779 40.0899,87.5909 C40.6329,60.0899 60.9869,40.3079 88.6309,40.3079 L89.4879,40.3079 C102.3529,40.5359 114.3019,45.7389 123.1359,54.9439 C131.9689,64.2059 136.6289,76.2699 136.2569,88.9629 L136.2569,89.3059 Z M123.7929,215.6609 C125.3079,215.6609 126.1089,215.6039 126.4809,215.7749 C126.5949,216.2329 126.7369,217.1469 126.7369,218.6339 L126.7369,553.7319 C126.7369,554.7039 126.6809,555.3899 126.7089,555.7329 C126.1369,555.8479 125.2509,555.9619 123.8789,555.9619 L53.1539,555.9619 C51.7539,555.9619 50.8099,555.8479 50.3239,555.8479 L50.0379,555.8479 C49.9239,555.2759 49.7529,554.1889 49.7529,552.3029 L49.7529,220.0629 C49.7529,217.8909 49.8669,216.5179 49.7239,215.8889 C50.5819,215.7749 51.9819,215.6609 54.2119,215.6609 L123.7929,215.6609 Z M176.3939,89.1349 C177.5659,68.1519 169.1599,46.2539 153.3229,28.9869 C136.7719,10.9769 114.6459,0.6859 91.0319,0.0569 C90.2889,0.0569 89.5739,-0.0001 88.8309,-0.0001 C42.2629,-0.0001 1.8689,38.0209 0.0679,84.0459 C-1.7471,130.4719 33.0009,171.0649 76.8959,175.8679 C66.8759,175.8679 56.8709,175.8099 46.8649,175.8679 C36.1449,175.9249 26.4539,180.6699 18.8209,189.5899 C10.7879,199.0799 9.7309,209.9439 9.7309,219.2629 L9.7019,426.8059 L9.7589,552.7029 C9.7879,578.8889 26.7689,595.8689 52.9829,595.9269 C64.7039,595.9839 76.4239,595.9839 88.1449,595.9839 C99.8369,595.9839 111.5579,595.9839 123.2779,595.9269 C150.0649,595.8689 166.6739,579.1749 166.6739,552.3599 L166.6739,219.3199 C166.7019,216.9759 166.6739,214.6319 166.4739,212.3449 C164.7579,192.1049 147.8919,176.0969 128.1099,175.8679 C115.9029,175.8099 103.6819,175.8679 91.4609,175.8679 C112.8439,174.7239 132.7549,167.4059 147.8349,153.4549 C165.2729,137.3889 175.3929,114.5199 176.3939,89.1349 L176.3939,89.1349 Z" id="Fill-4" fill="#F4E9D9" mask="url(#mask-4)"></path>
            </g>
        </g>
    </g>
</svg>