<?xml version="1.0" encoding="UTF-8"?>
<svg width="206px" height="216px" viewBox="0 0 206 216" version="1.1" xmlns="http://www.w3.org/2000/svg" xmlns:xlink="http://www.w3.org/1999/xlink">
    <title>Group 4</title>
    <defs>
        <path d="M48.966,0 L48.966,187 L88.473,187 C113.132,187 133.957,167.476 134.222,142.818 L134.222,142.818 C134.411,125.001 124.27,109.249 108.519,101.991 L108.519,101.991 C119.537,94.414 126.153,82.079 126.151,68.554 L126.151,68.554 C126.148,46.314 106.918,28.131 84.678,28.131 L84.678,28.131 L60.287,28.131 L60.287,11.321 L139.254,11.321 C162.19,11.321 181.753,29.113 182.628,52.031 L182.628,52.031 C183.551,76.13 164.197,96.043 140.299,96.043 L140.299,96.043 L138.653,96.043 L138.653,107.365 L144.501,107.365 C171.495,107.365 194.287,129.452 193.821,156.442 L193.821,156.442 C193.371,182.655 171.917,203.829 145.617,203.829 L145.617,203.829 L11.321,203.829 L11.321,39.473 L40.92,39.473 L40.92,28.131 L0,28.131 L0,215.151 L144.355,215.151 C176.093,215.151 203.196,190.817 205.047,159.135 L205.047,159.135 C206.582,132.887 190.924,109.363 167.15,100.251 L167.15,100.251 C183.82,90.476 194.187,72.624 193.979,53.1 L193.979,53.1 C193.66,23.491 168.766,0 139.154,0 L139.154,0 L48.966,0 Z M60.287,39.473 L85.724,39.473 C101.767,39.473 114.811,52.516 114.811,68.561 L114.811,68.561 C114.811,84.606 101.767,97.668 85.724,97.668 L85.724,97.668 L78.891,97.668 L78.891,108.99 L89.566,108.99 C107.947,108.99 122.901,123.945 122.901,142.325 L122.901,142.325 C122.901,160.722 107.947,175.678 89.566,175.678 L89.566,175.678 L60.287,175.678 L60.287,39.473 Z" id="path-1"></path>
        <linearGradient x1="-0.000124103947%" y1="49.9998179%" x2="100.000001%" y2="49.9998179%" id="linearGradient-3">
            <stop stop-color="#91774F" offset="0%"></stop>
            <stop stop-color="#F2CC80" offset="100%"></stop>
        </linearGradient>
        <linearGradient x1="-0.000124103947%" y1="49.9998179%" x2="100.000001%" y2="49.9998179%" id="linearGradient-4">
            <stop stop-color="#F4E9D9" offset="0%"></stop>
            <stop stop-color="#F4E9D9" offset="100%"></stop>
        </linearGradient>
    </defs>
    <g id="Page-1" stroke="none" stroke-width="1" fill="none" fill-rule="evenodd">
        <g id="Group-4" transform="translate(0.033000, 0.242000)">
            <mask id="mask-2" fill="white">
                <use xlink:href="#path-1"></use>
            </mask>
            <g id="Clip-3"></g>
            <path d="M48.966,0 L48.966,187 L88.473,187 C113.132,187 133.957,167.476 134.222,142.818 L134.222,142.818 C134.411,125.001 124.27,109.249 108.519,101.991 L108.519,101.991 C119.537,94.414 126.153,82.079 126.151,68.554 L126.151,68.554 C126.148,46.314 106.918,28.131 84.678,28.131 L84.678,28.131 L60.287,28.131 L60.287,11.321 L139.254,11.321 C162.19,11.321 181.753,29.113 182.628,52.031 L182.628,52.031 C183.551,76.13 164.197,96.043 140.299,96.043 L140.299,96.043 L138.653,96.043 L138.653,107.365 L144.501,107.365 C171.495,107.365 194.287,129.452 193.821,156.442 L193.821,156.442 C193.371,182.655 171.917,203.829 145.617,203.829 L145.617,203.829 L11.321,203.829 L11.321,39.473 L40.92,39.473 L40.92,28.131 L0,28.131 L0,215.151 L144.355,215.151 C176.093,215.151 203.196,190.817 205.047,159.135 L205.047,159.135 C206.582,132.887 190.924,109.363 167.15,100.251 L167.15,100.251 C183.82,90.476 194.187,72.624 193.979,53.1 L193.979,53.1 C193.66,23.491 168.766,0 139.154,0 L139.154,0 L48.966,0 Z M60.287,39.473 L85.724,39.473 C101.767,39.473 114.811,52.516 114.811,68.561 L114.811,68.561 C114.811,84.606 101.767,97.668 85.724,97.668 L85.724,97.668 L78.891,97.668 L78.891,108.99 L89.566,108.99 C107.947,108.99 122.901,123.945 122.901,142.325 L122.901,142.325 C122.901,160.722 107.947,175.678 89.566,175.678 L89.566,175.678 L60.287,175.678 L60.287,39.473 Z" id="Fill-2" fill="url(#linearGradient-4)" mask="url(#mask-2)"></path>
        </g>
    </g>
</svg>