<svg height="326" viewBox="0 0 432 326" width="432" xmlns="http://www.w3.org/2000/svg" xmlns:xlink="http://www.w3.org/1999/xlink"><linearGradient id="a" x1="-.000124%" x2="100.000001%" y1="49.999818%" y2="49.999818%"><stop offset="0" stop-color="#91774f"/><stop offset="1" stop-color="#f2cc80"/></linearGradient><mask id="b" fill="#fff"><path d="m48.966 0v187h39.507c24.659 0 45.484-19.524 45.749-44.182.189-17.817-9.952-33.569-25.703-40.827 11.018-7.577 17.634-19.912 17.632-33.437-.003-22.24-19.233-40.423-41.473-40.423h-24.391v-16.81h78.967c22.936 0 42.499 17.792 43.374 40.71.923 24.099-18.431 44.012-42.329 44.012h-1.646v11.322h5.848c26.994 0 49.786 22.087 49.32 49.077-.45 26.213-21.904 47.387-48.204 47.387h-134.296v-164.356h29.599v-11.342h-40.92v187.02h144.355c31.738 0 58.841-24.334 60.692-56.016 1.535-26.248-14.123-49.772-37.897-58.884 16.67-9.775 27.037-27.627 26.829-47.151-.319-29.609-25.213-53.1-54.825-53.1zm11.321 39.473h25.437c16.043 0 29.087 13.043 29.087 29.088s-13.044 29.107-29.087 29.107h-6.833v11.322h10.675c18.381 0 33.335 14.955 33.335 33.335 0 18.397-14.954 33.353-33.335 33.353h-29.279z" fill="#fff" fill-rule="evenodd"/></mask><g fill="none" fill-rule="evenodd"><g fill="#f1e7d7" transform="translate(.0003 274.592411)"><path d="m26.342 22.1565894h-17.971v-13.02599998h18.414c.932 0 1.914.097 2.916.285.884.168 1.675.474 2.355.91199998.63.404 1.142.975 1.565 1.742.416.756.627 1.81.627 3.132 0 1.453-.209 2.641-.621 3.53-.397.856-.906 1.5-1.558 1.969-.712.514-1.52.872-2.471 1.093-1.041.24-2.136.363-3.256.363m16.693 24.077c-.171-.663-.317-1.432-.433-2.288-.12-.888-.211-1.793-.272-2.72l-.155-2.496c-.089-1.933-.269-3.673-.533-5.175-.288-1.631-.783-3.083-1.474-4.316-.737-1.312-1.749-2.381-3.008-3.176 1.277-.846 2.359-1.846 3.215-2.971.861-1.132 1.521-2.391 1.963-3.74.439-1.341.661-2.736.661-4.15 0-2.644-.471-4.916-1.402-6.75299998-.94-1.855-2.243-3.356-3.872-4.46-1.566-1.058-3.369-1.811-5.362-2.238-1.895-.406-3.877-.612-5.894-.612h-26.469v48.88799998h8.371v-19.878h16.325c1.771 0 3.272.16 4.465.477 1.05.278 1.916.729 2.572 1.34.652.606 1.128 1.418 1.456 2.483.37 1.204.577 2.728.615 4.521.043 2.575.153 4.708.327 6.337.218 2.056.637 3.326 1.355 4.116l.549.604 10.4.08-3.147-3.147c-.005-.007-.112-.178-.253-.726"/><path d="m61.6096 28.7552894h30.133v-7.99h-30.133v-11.63499998h31.273v-7.991h-39.645v48.88699998h40.151v-7.992h-31.779z"/><path d="m136.4118 24.8933894c-1.679-.942-3.601-1.685-5.714-2.208-2.008-.496-4.09-.92-6.208-1.267-2.69-.413-5.075-.853-7.092-1.305-1.93-.434-3.534-.952-4.771-1.544-1.081-.515-1.886-1.136-2.397-1.847-.47-.657-.698-1.505-.698-2.597 0-.906.221-1.682.676-2.372.503-.762 1.186-1.393 2.092-1.92899998.969-.575 2.155-1.027 3.521-1.341 2.877-.657 6.489-.619 9.52-.076 1.425.256 2.692.702 3.763 1.326 1.029.60199998 1.855 1.38699998 2.526 2.40199998.648.979 1.048 2.299 1.19 3.922l.146 1.683h8.278l-.061-1.902c-.095-3.012-.782-5.584-2.043-7.64599998-1.25-2.041-2.906-3.696-4.92-4.917-1.939-1.177-4.146-2.032-6.562-2.541-4.544-.947-9.438-.987-14.047-.03-2.325.483-4.446 1.293-6.301 2.407-1.937 1.16-3.521 2.731-4.707 4.669-1.21 1.975-1.823 4.38599998-1.823 7.16799998 0 4.286 1.706 7.537 5.07 9.662 3.05 1.926 7.307 3.296 12.999 4.185 2.062.338 4.073.674 6.029 1.009 1.825.315 3.47.76 4.887 1.321 1.271.506 2.3 1.18 3.058 2.004.631.687.938 1.635.938 2.899 0 1.382-.294 2.509-.876 3.351-.634.917-1.449 1.624-2.494 2.164-1.133.585-2.441 1.003-3.889 1.244-3.506.586-7.284.472-10.383-.091-1.606-.292-3.009-.819-4.169-1.568-1.132-.733-2.032-1.705-2.755-2.976-.73-1.28-1.195-2.986-1.38-5.073l-.15-1.68h-8.32l.108 1.946c.183 3.29.881 6.11 2.077 8.384 1.209 2.301 2.862 4.193 4.913 5.623 2.007 1.4 4.37 2.402 7.026 2.979 2.546.554 5.351.835 8.336.835 2.292 0 4.643-.224 6.99-.667 2.442-.461 4.688-1.293 6.675-2.472 2.061-1.223 3.761-2.886 5.051-4.942 1.322-2.103 1.992-4.754 1.992-7.879 0-2.52-.587-4.659-1.745-6.358-1.107-1.622-2.572-2.953-4.356-3.955"/><path d="m151.2967 50.0265894h8.372v-48.88799998h-8.372z"/><path d="m179.5446 9.13068942h15.249c4.677 0 7.96 1.29099998 10.037 3.94699998 2.156 2.756 3.249 6.964 3.249 12.505 0 3.237-.381 5.96-1.131 8.093-.729 2.078-1.696 3.747-2.875 4.962-1.173 1.209-2.505 2.051-4.071 2.573-1.639.546-3.391.824-5.209.824h-15.249zm15.438-7.992h-23.81v48.88799998h24.507c3.43 0 6.512-.647 9.158-1.925 2.643-1.275 4.891-3.054 6.681-5.286 1.768-2.204 3.114-4.833 4.001-7.813.87-2.921 1.311-6.091 1.311-9.42 0-7.506-1.851-13.497-5.5-17.80899998-3.729-4.402-9.229-6.635-16.348-6.635z"/><path d="m235.885 28.7552894h30.133v-7.99h-30.133v-11.63499998h31.272v-7.991h-39.644v48.88699998h40.15v-7.992h-31.778z"/><path d="m313.7976 36.5887894-28.998-35.44999998h-8.352v48.88799998h8.372v-35.473l29.191 35.473h8.159v-48.88799998h-8.372z"/><path d="m373.3298 30.6433894c-.347 1.962-.926 3.748-1.725 5.305-.77 1.504-1.791 2.805-3.036 3.868-1.244 1.061-2.779 1.89-4.561 2.466-1.835.592-4.03.892-6.524.892-3.141 0-5.827-.49-7.983-1.454-2.139-.958-3.898-2.248-5.228-3.838-1.35-1.612-2.349-3.479-2.97-5.548-.642-2.139-.967-4.411-.967-6.752 0-3.05.428-5.715 1.271-7.918.827-2.165 1.992-3.987 3.458-5.416 1.458-1.421 3.245-2.49099998 5.31-3.17999998 3.712-1.233 8.39-1.428 12.649-.457 1.724.393 3.298 1.036 4.676 1.90899998 1.352.861 2.51 1.963 3.441 3.277.903 1.277 1.511 2.867 1.804 4.728l.244 1.557h8.328l-.235-2.053c-.371-3.24-1.357-6.061-2.931-8.38699998-1.55-2.29-3.476-4.179-5.727-5.618-2.213-1.414-4.682-2.452-7.336-3.087-5.741-1.373-11.708-1.175-16.274.185-2.504.742-4.747 1.769-6.67 3.048-1.92 1.282-3.59 2.792-4.966 4.489-1.361 1.67699998-2.489 3.49499998-3.35 5.40199998-.858 1.894-1.488 3.853-1.871 5.819-.38 1.942-.573 3.861-.573 5.702 0 3.84.605 7.373 1.799 10.501 1.206 3.167 2.97 5.903 5.244 8.131 2.264 2.218 5.036 3.952 8.238 5.156 3.171 1.192 6.743 1.796 10.619 1.796 3.45 0 6.636-.529 9.467-1.57 2.83-1.042 5.32-2.473 7.4-4.255 2.097-1.797 3.791-3.947 5.033-6.387 1.238-2.432 2.006-5.058 2.281-7.807l.202-2.027h-8.268z"/><path d="m400.2214 42.0345894v-13.279h30.133v-7.991h-30.133v-11.63399998h31.272v-7.992h-39.644v48.88799998h40.15v-7.992z"/></g><path d="m48.966 0v187h39.507c24.659 0 45.484-19.524 45.749-44.182.189-17.817-9.952-33.569-25.703-40.827 11.018-7.577 17.634-19.912 17.632-33.437-.003-22.24-19.233-40.423-41.473-40.423h-24.391v-16.81h78.967c22.936 0 42.499 17.792 43.374 40.71.923 24.099-18.431 44.012-42.329 44.012h-1.646v11.322h5.848c26.994 0 49.786 22.087 49.32 49.077-.45 26.213-21.904 47.387-48.204 47.387h-134.296v-164.356h29.599v-11.342h-40.92v187.02h144.355c31.738 0 58.841-24.334 60.692-56.016 1.535-26.248-14.123-49.772-37.897-58.884 16.67-9.775 27.037-27.627 26.829-47.151-.319-29.609-25.213-53.1-54.825-53.1zm11.321 39.473h25.437c16.043 0 29.087 13.043 29.087 29.088s-13.044 29.107-29.087 29.107h-6.833v11.322h10.675c18.381 0 33.335 14.955 33.335 33.335 0 18.397-14.954 33.353-33.335 33.353h-29.279z" fill="url(#a)" mask="url(#b)" transform="translate(113.033 .242)"/></g></svg>