<svg height="1080" viewBox="0 0 1031 1080" width="1031" xmlns="http://www.w3.org/2000/svg" xmlns:xlink="http://www.w3.org/1999/xlink"><mask id="a" fill="#fff"><path d="m0 0h1030.1484v1080h-1030.1484z" fill="#fff" fill-rule="evenodd"/></mask><path d="m430.4565 198.2107c80.56 0 146.062 65.495 146.062 146.064 0 80.568-65.502 146.163-146.062 146.163h-34.308v56.851h53.604c92.296 0 167.388 75.092 167.388 167.388 0 92.378-75.092 167.479-167.388 167.479h-147.027v-683.945zm408.876 305.191c83.707-49.082 135.765-138.722 134.719-236.758-1.602-148.683-126.604-266.644-275.296-266.644h-452.873v939.007h198.375c123.828 0 228.397-98.036 229.725-221.856.955-89.466-49.965-168.561-129.06-205.007 55.324-38.046 88.548-99.992 88.539-167.906-.019-111.674-96.58-202.978-208.255-202.978h-122.481v-84.408h396.53c115.168 0 213.404 89.339 217.799 204.424 4.631 121.008-92.551 221.001-212.55 221.001h-8.269v56.851h29.367c135.546 0 249.995 110.91 247.657 246.438-2.265 131.625-109.991 237.949-242.052 237.949h-674.356v-825.304h148.629v-56.951h-205.481v939.107h724.867c159.372 0 295.464-122.191 304.762-281.282 7.705-131.798-70.916-249.922-190.296-295.683z" fill="#f2e8d8" fill-rule="evenodd" mask="url(#a)"/></svg>