<svg height="216" viewBox="0 0 206 216" width="206" xmlns="http://www.w3.org/2000/svg" xmlns:xlink="http://www.w3.org/1999/xlink"><linearGradient id="a" x1="-.000205%" x2="99.999902%" y1="49.999809%" y2="49.999809%"><stop offset="0" stop-color="#91774f"/><stop offset="1" stop-color="#f2cc80"/></linearGradient><mask id="b" fill="#fff"><path d="m49.023 0v187.214h39.551c24.688 0 45.537-19.545 45.801-44.232.191-17.837-9.961-33.607-25.731-40.874 11.031-7.585 17.655-19.936 17.653-33.476-.005-22.264-19.256-40.469-41.521-40.469h-24.42v-16.829h79.058c22.963 0 42.549 17.813 43.424 40.758.923 24.126-18.452 44.062-42.378 44.062h-1.648v11.335h5.856c27.024 0 49.843 22.112 49.376 49.133-.451 26.243-21.929 47.442-48.259 47.442h-134.451v-164.545h29.634v-11.356h-40.968v187.236h144.52c31.776 0 58.91-24.363 60.763-56.081 1.536-26.278-14.138-49.829-37.941-58.953 16.69-9.785 27.069-27.657 26.86-47.203-.32-29.643-25.242-53.162-54.887-53.162zm11.333 39.519h25.466c16.061 0 29.122 13.057 29.122 29.12 0 16.064-13.061 29.142-29.122 29.142h-6.84v11.335h10.688c18.401 0 33.372 14.971 33.372 33.373 0 18.418-14.971 33.391-33.372 33.391h-29.314z" fill="#fff" fill-rule="evenodd"/></mask><path d="m49.023 0v187.214h39.551c24.688 0 45.537-19.545 45.801-44.232.191-17.837-9.961-33.607-25.731-40.874 11.031-7.585 17.655-19.936 17.653-33.476-.005-22.264-19.256-40.469-41.521-40.469h-24.42v-16.829h79.058c22.963 0 42.549 17.813 43.424 40.758.923 24.126-18.452 44.062-42.378 44.062h-1.648v11.335h5.856c27.024 0 49.843 22.112 49.376 49.133-.451 26.243-21.929 47.442-48.259 47.442h-134.451v-164.545h29.634v-11.356h-40.968v187.236h144.52c31.776 0 58.91-24.363 60.763-56.081 1.536-26.278-14.138-49.829-37.941-58.953 16.69-9.785 27.069-27.657 26.86-47.203-.32-29.643-25.242-53.162-54.887-53.162zm11.333 39.519h25.466c16.061 0 29.122 13.057 29.122 29.12 0 16.064-13.061 29.142-29.122 29.142h-6.84v11.335h10.688c18.401 0 33.372 14.971 33.372 33.373 0 18.418-14.971 33.391-33.372 33.391h-29.314z" fill="url(#a)" fill-rule="evenodd" mask="url(#b)" transform="translate(.307 .43)"/></svg>