<svg height="252" viewBox="0 0 413 252" width="413" xmlns="http://www.w3.org/2000/svg"><g fill="none" fill-rule="evenodd" transform="translate(.3257 .1885)"><path d="m58.897 83.6621h-58.897v-54.448c0-16.134 13.079-29.214 29.213-29.214h.47c16.135 0 29.214 13.08 29.214 29.214z" fill="#203f2d"/><path d="m176.6929 83.6621h-58.897v-54.448c0-16.134 13.079-29.214 29.213-29.214h.47c16.135 0 29.214 13.08 29.214 29.214z" fill="#203f2d"/><path d="m58.897 0h58.898v54.448c0 16.135-13.08 29.214-29.214 29.214h-.469c-16.135 0-29.215-13.079-29.215-29.214z" fill="#2b523d"/><path d="m58.897 167.3237h-58.897v-54.448c0-16.134 13.079-29.214 29.213-29.214h.47c16.135 0 29.214 13.08 29.214 29.214z" fill="#203f2d"/><path d="m176.6929 167.3237h-58.897v-54.448c0-16.134 13.079-29.214 29.213-29.214h.47c16.135 0 29.214 13.08 29.214 29.214z" fill="#203f2d"/><path d="m58.897 83.6621h58.898v54.448c0 16.134-13.08 29.214-29.214 29.214h-.469c-16.135 0-29.215-13.08-29.215-29.214z" fill="#2b523d"/><g fill="#203f2d"><path d="m58.897 250.9858h-58.897v-54.448c0-16.135 13.079-29.214 29.213-29.214h.47c16.135 0 29.214 13.079 29.214 29.214z"/><path d="m294.1313 83.6621h-58.898v-54.448c0-16.134 13.08-29.214 29.213-29.214h.47c16.135 0 29.215 13.08 29.215 29.214z"/><path d="m294.1313 167.3237h-58.898v-54.448c0-16.134 13.08-29.214 29.213-29.214h.47c16.135 0 29.215 13.08 29.215 29.214z"/></g><path d="m176.3354 83.6621h58.897v54.448c0 16.134-13.079 29.214-29.213 29.214h-.47c-16.135 0-29.214-13.08-29.214-29.214z" fill="#2b523d"/><path d="m294.1313 0h58.897v54.448c0 16.135-13.08 29.214-29.213 29.214h-.47c-16.135 0-29.214-13.079-29.214-29.214z" fill="#2b523d"/><path d="m411.9272 167.3237h-58.898v-54.448c0-16.134 13.08-29.214 29.213-29.214h.47c16.135 0 29.215 13.08 29.215 29.214z" fill="#203f2d"/><path d="m176.6929 250.9858h-58.897v-54.448c0-16.135 13.079-29.214 29.213-29.214h.47c16.135 0 29.214 13.079 29.214 29.214z" fill="#203f2d"/><path d="m58.897 167.3237h58.898v54.448c0 16.135-13.08 29.214-29.214 29.214h-.469c-16.135 0-29.215-13.079-29.215-29.214z" fill="#2b523d"/><path d="m176.3354 0h58.897v54.448c0 16.135-13.079 29.214-29.213 29.214h-.47c-16.135 0-29.214-13.079-29.214-29.214z" fill="#2b523d"/><path d="m294.1313 250.9858h-58.898v-54.448c0-16.135 13.08-29.214 29.213-29.214h.47c16.135 0 29.215 13.079 29.215 29.214z" fill="#203f2d"/><path d="m176.3354 167.3237h58.897v54.448c0 16.135-13.079 29.214-29.213 29.214h-.47c-16.135 0-29.214-13.079-29.214-29.214z" fill="#2b523d"/><path d="m411.9272 83.6621h-58.898v-54.448c0-16.134 13.08-29.214 29.213-29.214h.47c16.135 0 29.215 13.08 29.215 29.214z" fill="#203f2d"/><path d="m294.1313 83.6621h58.897v54.448c0 16.134-13.08 29.214-29.213 29.214h-.47c-16.135 0-29.214-13.08-29.214-29.214z" fill="#2b523d"/><path d="m411.9272 250.9858h-58.898v-54.448c0-16.135 13.08-29.214 29.213-29.214h.47c16.135 0 29.215 13.079 29.215 29.214z" fill="#203f2d"/><path d="m294.1313 167.3237h58.897v54.448c0 16.135-13.08 29.214-29.213 29.214h-.47c-16.135 0-29.214-13.079-29.214-29.214z" fill="#2b523d"/></g></svg>