<?xml version="1.0" encoding="UTF-8"?>
<svg width="19px" height="19px" viewBox="0 0 19 19" version="1.1" xmlns="http://www.w3.org/2000/svg" xmlns:xlink="http://www.w3.org/1999/xlink">
    <title>instagram</title>
    <g id="La-Nina" stroke="none" stroke-width="1" fill="none" fill-rule="evenodd">
        <g id="instagram" fill="#F3E7DB">
            <path d="M13.4420375,4.45757 C13.4420375,3.90528 13.8898375,3.45757 14.4420375,3.45757 C14.9943375,3.45757 15.4420375,3.90528 15.4420375,4.45757 C15.4420375,5.00985 14.9943375,5.45757 14.4420375,5.45757 C13.8898375,5.45757 13.4420375,5.00985 13.4420375,4.45757 Z" id="Path" fill-rule="nonzero"></path>
            <path d="M9.4420375,4.70757 C6.8187275,4.70757 4.6920775,6.83421 4.6920775,9.45752 C4.6920775,12.08092 6.8187275,14.20752 9.4420375,14.20752 C12.0654375,14.20752 14.1920375,12.08092 14.1920375,9.45752 C14.1920375,6.83421 12.0654375,4.70757 9.4420375,4.70757 Z M6.1920775,9.45752 C6.1920775,7.66262 7.6471375,6.20757 9.4420375,6.20757 C11.2370375,6.20757 12.6920375,7.66262 12.6920375,9.45752 C12.6920375,11.25252 11.2370375,12.70752 9.4420375,12.70752 C7.6471375,12.70752 6.1920775,11.25252 6.1920775,9.45752 Z" id="Shape"></path>
            <path d="M14.7003375,0.29058 C11.2337375,-0.09686 7.6504375,-0.09686 4.1838475,0.29058 C2.1717875,0.51546 0.5474575,2.10047 0.3108975,4.123 C-0.1036325,7.66732 -0.1036325,11.24782 0.3108975,14.79212 C0.5474575,16.81462 2.1717875,18.39972 4.1838475,18.62452 C7.6504375,19.01202 11.2337375,19.01202 14.7003375,18.62452 C16.7123375,18.39972 18.3367375,16.81462 18.5732375,14.79212 C18.9878375,11.24782 18.9878375,7.66732 18.5732375,4.123 C18.3367375,2.10047 16.7124375,0.51546 14.7003375,0.29058 Z M4.3504575,1.7813 C7.7063375,1.40623 11.1778375,1.40623 14.5337375,1.7813 C15.8638375,1.92996 16.9293375,2.97957 17.0834375,4.29725 C17.4844375,7.72582 17.4844375,11.18932 17.0834375,14.61792 C16.9293375,15.93552 15.8638375,16.98522 14.5337375,17.13382 C11.1778375,17.50892 7.7063375,17.50892 4.3504575,17.13382 C3.0203475,16.98522 1.9548575,15.93552 1.8007475,14.61792 C1.3997475,11.18932 1.3997475,7.72582 1.8007475,4.29725 C1.9548575,2.97957 3.0203475,1.92996 4.3504575,1.7813 Z" id="Shape"></path>
        </g>
    </g>
</svg>