<svg height="513" viewBox="0 0 512 513" width="512" xmlns="http://www.w3.org/2000/svg"><path d="m18.9177865 351.149799 108.4999995-46.52c12.78-5.531 27.77-1.801 36.45 8.98l44.09 53.82c69.25-34 125.5-90.31 159.5-159.5l-53.81-44.04c-10.75-8.781-14.41-23.69-8.974-36.47l46.51-108.5000004c6.094-13.91000004 21.1-21.52000004 35.79-18.11000004l100.8 23.25000004c14.25 3.25 24.22 15.8 24.22 30.46 0 252.3000004-205.2 457.5000004-457.4999995 457.5000004-14.67 0-27.18-9.968-30.45-24.22l-23.25000003-100.8c-3.367-14.65 4.222-29.85 18.12400003-35.85z" fill="#f3e7db"/></svg>