<?xml version="1.0" encoding="UTF-8"?>
<svg width="512px" height="513px" viewBox="0 0 512 513" version="1.1" xmlns="http://www.w3.org/2000/svg" xmlns:xlink="http://www.w3.org/1999/xlink">
    <title>phoneRight</title>
    <g id="La-Nina" stroke="none" stroke-width="1" fill="none" fill-rule="evenodd">
        <g id="phoneRight" fill="#F4E9D9" fill-rule="nonzero">
            <path d="M18.9177865,351.149799 L127.417786,304.629799 C140.197786,299.098799 155.187786,302.828799 163.867786,313.609799 L207.957786,367.429799 C277.207786,333.429799 333.457786,277.119799 367.457786,207.929799 L313.647786,163.889799 C302.897786,155.108799 299.237786,140.199799 304.673786,127.419799 L351.183786,18.9197986 C357.277786,5.00979856 372.283786,-2.60020144 386.973786,0.809798555 L487.773786,24.0597986 C502.023786,27.3097986 511.993786,39.8597986 511.993786,54.5197986 C511.993786,306.819799 306.793786,512.019799 54.4937865,512.019799 C39.8237865,512.019799 27.3137865,502.051799 24.0437865,487.799799 L0.793786472,386.999799 C-2.57321353,372.349799 5.01578647,357.149799 18.9177865,351.149799 Z" id="Path"></path>
        </g>
    </g>
</svg>